<svg width="512" height="512" viewBox="0 0 512 512" fill="none" xmlns="http://www.w3.org/2000/svg">
<path d="M256 512C397.385 512 512 397.385 512 256C512 114.615 397.385 0 256 0C114.615 0 0 114.615 0 256C0 397.385 114.615 512 256 512Z" fill="#2B2E3A"/>
<path d="M255.234 108.888C269.332 108.888 280.76 97.46 280.76 83.362C280.76 69.264 269.332 57.836 255.234 57.836C241.136 57.836 229.708 69.264 229.708 83.362C229.708 97.46 241.136 108.888 255.234 108.888ZM255.234 98.222C251.293 98.222 247.513 96.6564 244.726 93.8696C241.94 91.0828 240.374 87.3031 240.374 83.362C240.374 79.4209 241.94 75.6412 244.726 72.8544C247.513 70.0676 251.293 68.502 255.234 68.502C259.175 68.502 262.955 70.0676 265.742 72.8544C268.528 75.6412 270.094 79.4209 270.094 83.362C270.094 87.3031 268.528 91.0828 265.742 93.8696C262.955 96.6564 259.175 98.222 255.234 98.222Z" fill="#9FEAF9"/>
<path d="M201.004 143.38C148.994 133.908 107.87 143.822 91.48 172.21C79.25 193.394 82.7459 221.48 99.9599 251.502C100.3 252.126 100.761 252.675 101.316 253.118C101.871 253.561 102.509 253.889 103.192 254.082C103.876 254.275 104.591 254.33 105.296 254.243C106 254.156 106.681 253.929 107.297 253.576C107.913 253.223 108.452 252.75 108.883 252.185C109.314 251.621 109.628 250.976 109.806 250.289C109.985 249.601 110.024 248.885 109.922 248.182C109.82 247.48 109.578 246.804 109.212 246.196C93.7079 219.152 90.69 194.914 100.718 177.544C114.334 153.962 151.014 145.118 199.092 153.874C200.474 154.104 201.89 153.781 203.036 152.976C204.182 152.17 204.965 150.946 205.216 149.569C205.467 148.191 205.166 146.769 204.378 145.611C203.59 144.454 202.378 143.652 201.004 143.38V143.38ZM127.006 287.994C148.036 311.104 175.358 332.782 206.518 350.77C281.964 394.33 362.284 405.972 401.868 378.982C402.46 378.593 402.969 378.09 403.364 377.503C403.76 376.915 404.035 376.255 404.172 375.56C404.31 374.865 404.308 374.15 404.166 373.456C404.024 372.762 403.746 372.103 403.347 371.518C402.948 370.933 402.436 370.433 401.841 370.048C401.247 369.662 400.582 369.399 399.885 369.274C399.188 369.148 398.473 369.163 397.781 369.317C397.09 369.471 396.436 369.761 395.858 370.17C360.43 394.326 284.134 383.266 211.852 341.534C181.624 324.082 155.166 303.09 134.896 280.814C134.425 280.293 133.856 279.87 133.222 279.569C132.587 279.268 131.9 279.095 131.198 279.061C130.497 279.027 129.796 279.131 129.135 279.368C128.474 279.606 127.866 279.971 127.347 280.444C126.828 280.916 126.407 281.487 126.108 282.122C125.81 282.758 125.64 283.446 125.608 284.148C125.577 284.849 125.684 285.55 125.924 286.21C126.164 286.87 126.531 287.476 127.006 287.994V287.994Z" fill="#9FEAF9"/>
<path d="M389.24 281.506C423.296 241.274 435.186 200.81 418.83 172.482C406.796 151.636 381.354 140.63 347.54 140.19C346.139 140.192 344.794 140.746 343.798 141.731C342.801 142.716 342.233 144.054 342.214 145.455C342.196 146.856 342.73 148.208 343.701 149.219C344.672 150.23 346.001 150.818 347.402 150.856C377.812 151.252 399.732 160.734 409.594 177.816C423.178 201.346 412.574 237.43 381.098 274.614C380.636 275.147 380.285 275.767 380.064 276.437C379.843 277.107 379.758 277.814 379.812 278.518C379.867 279.221 380.06 279.907 380.382 280.535C380.703 281.163 381.146 281.721 381.684 282.177C382.223 282.633 382.846 282.977 383.519 283.19C384.191 283.404 384.899 283.481 385.602 283.419C386.305 283.356 386.988 283.155 387.613 282.827C388.237 282.499 388.79 282.05 389.24 281.506ZM301.718 145.156C270.926 151.754 238.15 164.654 206.674 182.826C128.79 227.792 77.9841 294.098 85.0401 342.176C85.1341 342.876 85.3662 343.55 85.7227 344.159C86.0792 344.768 86.5531 345.301 87.1169 345.725C87.6807 346.15 88.3233 346.459 89.0073 346.633C89.6913 346.808 90.4031 346.845 91.1015 346.743C91.8 346.64 92.4711 346.4 93.076 346.036C93.6809 345.672 94.2076 345.192 94.6255 344.623C95.0434 344.054 95.3442 343.408 95.5104 342.721C95.6767 342.035 95.7051 341.323 95.5941 340.626C89.3281 297.938 137.488 235.088 212.008 192.064C242.542 174.434 274.278 161.944 303.952 155.586C304.647 155.449 305.307 155.175 305.894 154.781C306.482 154.386 306.985 153.878 307.375 153.287C307.764 152.696 308.032 152.034 308.163 151.338C308.294 150.642 308.285 149.928 308.136 149.236C307.988 148.543 307.703 147.888 307.299 147.307C306.895 146.726 306.379 146.231 305.782 145.851C305.185 145.471 304.518 145.214 303.82 145.095C303.122 144.976 302.408 144.996 301.718 145.156V145.156Z" fill="#9FEAF9"/>
<path d="M175.54 375.506C193.348 425.226 222.478 455.84 255.234 455.84C279.124 455.84 301.226 439.554 318.462 410.884C318.835 410.283 319.085 409.615 319.197 408.917C319.31 408.219 319.282 407.505 319.116 406.818C318.95 406.131 318.649 405.483 318.231 404.913C317.813 404.343 317.285 403.862 316.679 403.498C316.073 403.134 315.401 402.894 314.701 402.792C314.002 402.689 313.289 402.727 312.604 402.903C311.919 403.079 311.276 403.389 310.713 403.816C310.149 404.242 309.675 404.777 309.32 405.388C293.83 431.154 274.804 445.172 255.234 445.172C228.024 445.172 202.042 417.868 185.584 371.912C185.359 371.239 185.001 370.618 184.533 370.085C184.064 369.552 183.494 369.118 182.856 368.808C182.217 368.498 181.523 368.319 180.815 368.28C180.106 368.242 179.397 368.345 178.729 368.584C178.061 368.823 177.447 369.193 176.924 369.673C176.4 370.152 175.978 370.731 175.681 371.376C175.384 372.02 175.219 372.718 175.195 373.427C175.171 374.136 175.289 374.843 175.542 375.506H175.54ZM338.184 365.78C347.404 336.324 352.354 302.344 352.354 266.934C352.354 178.576 321.428 102.408 277.38 82.85C276.093 82.3111 274.647 82.2977 273.35 82.8128C272.054 83.3278 271.01 84.3303 270.444 85.6054C269.878 86.8805 269.834 88.3266 270.322 89.6337C270.809 90.9409 271.789 92.005 273.052 92.598C312.338 110.044 341.686 182.33 341.686 266.934C341.686 301.288 336.892 334.194 328.006 362.594C327.785 363.266 327.7 363.974 327.756 364.679C327.811 365.384 328.006 366.07 328.33 366.699C328.653 367.328 329.098 367.886 329.639 368.341C330.18 368.796 330.805 369.139 331.48 369.35C332.155 369.561 332.865 369.636 333.568 369.571C334.272 369.505 334.956 369.3 335.58 368.968C336.204 368.636 336.756 368.183 337.203 367.636C337.65 367.088 337.985 366.458 338.186 365.78H338.184ZM438.632 360.556C438.632 346.458 427.204 335.03 413.106 335.03C399.008 335.03 387.58 346.458 387.58 360.556C387.58 374.654 399.008 386.082 413.106 386.082C427.204 386.082 438.632 374.654 438.632 360.556ZM427.966 360.556C427.966 362.507 427.582 364.44 426.835 366.243C426.088 368.046 424.994 369.684 423.614 371.064C422.234 372.444 420.596 373.538 418.793 374.285C416.99 375.032 415.057 375.416 413.106 375.416C411.155 375.416 409.222 375.032 407.419 374.285C405.616 373.538 403.978 372.444 402.598 371.064C401.219 369.684 400.124 368.046 399.377 366.243C398.63 364.44 398.246 362.507 398.246 360.556C398.246 356.615 399.812 352.835 402.598 350.048C405.385 347.262 409.165 345.696 413.106 345.696C417.047 345.696 420.827 347.262 423.614 350.048C426.4 352.835 427.966 356.615 427.966 360.556ZM96.994 386.082C111.094 386.082 122.522 374.654 122.522 360.556C122.522 346.458 111.092 335.03 96.994 335.03C82.898 335.03 71.468 346.458 71.468 360.556C71.468 374.654 82.898 386.082 96.994 386.082ZM96.994 375.416C93.0529 375.416 89.2732 373.85 86.4864 371.064C83.6996 368.277 82.134 364.497 82.134 360.556C82.134 356.615 83.6996 352.835 86.4864 350.048C89.2732 347.262 93.0529 345.696 96.994 345.696C100.935 345.696 104.715 347.262 107.502 350.048C110.288 352.835 111.854 356.615 111.854 360.556C111.854 364.497 110.288 368.277 107.502 371.064C104.715 373.85 100.935 375.416 96.994 375.416V375.416Z" fill="#9FEAF9"/>
<path d="M387.871 316.394L267.273 129.144C264.806 125.316 260.56 123 256 123C251.44 123 247.194 125.316 244.727 129.144L124.129 316.394C121.478 320.51 121.29 325.742 123.639 330.037C125.989 334.33 130.5 337 135.401 337H376.599C381.502 337 386.012 334.329 388.361 330.032C390.71 325.739 390.522 320.508 387.871 316.394ZM256 161.11L291.757 216.625H256L229.2 243.375L213.263 227.467L256 161.11Z" fill="#9FEAF9" fill-opacity="0.5"/>
</svg>
